<svg xmlns="http://www.w3.org/2000/svg" xmlns:xlink="http://www.w3.org/1999/xlink" width="500" zoomAndPan="magnify" viewBox="0 0 375 374.999991" height="500" preserveAspectRatio="xMidYMid meet" version="1.0"><defs><g/><clipPath id="f942a26268"><path d="M 128.640625 188.746094 L 189.390625 188.746094 L 189.390625 249.496094 L 128.640625 249.496094 Z M 128.640625 188.746094 " clip-rule="nonzero"/></clipPath></defs><g fill="#fff6ea" fill-opacity="1"><g transform="translate(73.257715, 181.114436)"><g><path d="M 39.339844 -32.117188 L 36.277344 -28.976562 L 31.175781 -34.160156 L 31.175781 -46.722656 L 39.339844 -54.96875 Z M 12.722656 -34.160156 L 7.617188 -28.976562 L 4.554688 -32.117188 L 4.554688 -54.96875 L 12.722656 -46.722656 Z M 39.339844 -1.570312 L 31.175781 -9.738281 L 31.175781 -20.808594 L 36.277344 -25.914062 L 39.339844 -22.851562 Z M 26.382812 -14.132812 L 22.300781 -10.050781 L 18.140625 -14.132812 L 18.140625 -30.3125 L 22.300781 -34.472656 L 26.382812 -30.3125 Z M 37.847656 0 L 6.125 0 L 14.292969 -8.167969 L 29.683594 -8.167969 Z M 12.722656 -9.738281 L 4.554688 -1.570312 L 4.554688 -22.851562 L 7.617188 -25.914062 L 12.722656 -20.808594 Z M 12.722656 -9.738281 "/></g></g></g><g fill="#fff6ea" fill-opacity="1"><g transform="translate(117.742763, 181.114436)"><g><path d="M 37.847656 -54.96875 L 29.683594 -46.722656 L 14.292969 -46.722656 L 6.125 -54.96875 Z M 12.722656 -20.808594 L 12.722656 -8.167969 L 4.554688 0 L 4.554688 -22.851562 L 7.617188 -25.914062 Z M 4.554688 -32.117188 L 4.554688 -53.398438 L 12.722656 -45.230469 L 12.722656 -34.160156 L 7.617188 -28.976562 Z M 39.339844 -22.851562 L 39.339844 0 L 31.175781 -8.167969 L 31.175781 -20.808594 L 36.277344 -25.914062 Z M 31.175781 -34.160156 L 31.175781 -45.230469 L 39.339844 -53.398438 L 39.339844 -32.117188 L 36.277344 -28.976562 Z M 30.703125 -31.566406 L 34.785156 -27.484375 L 30.703125 -23.398438 L 13.269531 -23.398438 L 9.1875 -27.484375 L 13.269531 -31.566406 Z M 30.703125 -31.566406 "/></g></g></g><g fill="#fff6ea" fill-opacity="1"><g transform="translate(162.227812, 181.114436)"><g><path d="M 26.070312 -3.769531 L 21.988281 0.3125 L 17.902344 -3.769531 L 17.902344 -20.808594 L 23.007812 -25.914062 L 26.070312 -22.851562 Z M 26.070312 -32.117188 L 23.007812 -28.976562 L 17.902344 -34.160156 L 17.902344 -40.441406 L 21.988281 -44.523438 L 26.070312 -40.441406 Z M 41.226562 -50.882812 L 37.0625 -46.722656 L 6.832031 -46.722656 L 2.75 -50.882812 L 6.832031 -54.96875 L 37.0625 -54.96875 Z M 41.226562 -50.882812 "/></g></g></g><g fill="#fff6ea" fill-opacity="1"><g transform="translate(206.712854, 181.114436)"><g><path d="M 14.292969 0 L 10.207031 -4.082031 L 14.292969 -8.167969 L 31.175781 -8.167969 L 39.339844 0 Z M 39.339844 -54.96875 L 31.175781 -46.722656 L 14.292969 -46.722656 L 10.207031 -50.882812 L 14.292969 -54.96875 Z M 12.722656 -34.160156 L 7.617188 -28.976562 L 4.554688 -32.117188 L 4.554688 -45.230469 L 8.636719 -49.3125 L 12.722656 -45.230469 Z M 4.554688 -9.738281 L 8.636719 -5.652344 L 12.722656 -9.738281 L 12.722656 -20.808594 L 7.617188 -25.914062 L 4.554688 -22.851562 Z M 4.554688 -9.738281 "/></g></g></g><g fill="#fff6ea" fill-opacity="1"><g transform="translate(251.197907, 181.114436)"><g><path d="M 12.722656 -20.808594 L 12.722656 -8.167969 L 4.554688 0 L 4.554688 -22.851562 L 7.617188 -25.914062 Z M 4.554688 -32.117188 L 4.554688 -54.96875 L 12.722656 -46.722656 L 12.722656 -34.160156 L 7.617188 -28.976562 Z M 39.339844 -22.851562 L 39.339844 0 L 31.175781 -8.167969 L 31.175781 -20.808594 L 36.277344 -25.914062 Z M 31.175781 -34.160156 L 31.175781 -46.722656 L 39.339844 -54.96875 L 39.339844 -32.117188 L 36.277344 -28.976562 Z M 30.703125 -31.566406 L 34.785156 -27.484375 L 30.703125 -23.398438 L 13.269531 -23.398438 L 9.1875 -27.484375 L 13.269531 -31.566406 Z M 30.703125 -31.566406 "/></g></g></g><g fill="#fff6ea" fill-opacity="1"><g transform="translate(81.185952, 245.479391)"><g><path d="M 39.0625 -50.523438 L 35.007812 -46.390625 L 12.628906 -46.390625 L 4.523438 -54.574219 L 35.007812 -54.574219 Z M 35.007812 -38.515625 L 28.535156 -28.847656 L 21.285156 -28.066406 L 20.972656 -32.355469 L 29.238281 -44.519531 L 35.007812 -44.519531 Z M 21.285156 -19.804688 L 14.65625 -9.980469 L 8.578125 -9.980469 L 8.578125 -15.59375 L 15.984375 -26.507812 L 20.347656 -26.898438 Z M 38.125 0 L 8.578125 0 L 4.523438 -4.054688 L 8.578125 -8.109375 L 30.015625 -8.109375 Z M 38.125 0 "/></g></g></g><g fill="#fff6ea" fill-opacity="1"><g transform="translate(134.690793, 245.479391)"><g/></g></g><g fill="#fff6ea" fill-opacity="1"><g transform="translate(164.820904, 245.479391)"><g/></g></g><g fill="#fff6ea" fill-opacity="1"><g transform="translate(194.937245, 245.479391)"><g><path d="M 12.628906 -20.660156 L 12.628906 -8.109375 L 4.523438 0 L 4.523438 -22.6875 L 7.5625 -25.730469 Z M 4.523438 -31.886719 L 4.523438 -54.574219 L 12.628906 -46.390625 L 12.628906 -33.914062 L 7.5625 -28.769531 Z M 39.0625 -22.6875 L 39.0625 0 L 30.953125 -8.109375 L 30.953125 -20.660156 L 36.019531 -25.730469 Z M 30.953125 -33.914062 L 30.953125 -46.390625 L 39.0625 -54.574219 L 39.0625 -31.886719 L 36.019531 -28.769531 Z M 6.703125 -54.574219 L 18.554688 -54.574219 L 29.082031 -43.425781 L 29.082031 -37.578125 L 23.3125 -37.578125 Z M 6.703125 -54.574219 "/></g></g></g><g fill="#fff6ea" fill-opacity="1"><g transform="translate(248.4514, 245.479391)"><g><path d="M 39.0625 -54.574219 L 30.953125 -46.390625 L 14.191406 -46.390625 L 6.082031 -54.574219 Z M 39.0625 0 L 6.082031 0 L 14.191406 -8.109375 L 30.953125 -8.109375 Z M 12.628906 -20.660156 L 12.628906 -9.667969 L 4.523438 -1.558594 L 4.523438 -22.6875 L 7.5625 -25.730469 Z M 4.523438 -31.886719 L 4.523438 -53.015625 L 12.628906 -44.90625 L 12.628906 -33.914062 L 7.5625 -28.769531 Z M 30.484375 -31.34375 L 34.539062 -27.289062 L 30.484375 -23.234375 L 13.175781 -23.234375 L 9.121094 -27.289062 L 13.175781 -31.34375 Z M 30.484375 -31.34375 "/></g></g></g><g clip-path="url(#f942a26268)"><path fill="#ffc107" d="M 159.015625 188.742188 C 142.265625 188.742188 128.636719 202.371094 128.636719 219.121094 C 128.636719 235.871094 142.265625 249.5 159.015625 249.5 C 175.769531 249.5 189.394531 235.871094 189.394531 219.121094 C 189.394531 202.371094 175.769531 188.742188 159.015625 188.742188 Z M 159.015625 246.605469 C 143.863281 246.605469 131.53125 234.277344 131.53125 219.121094 C 131.53125 203.964844 143.863281 191.632812 159.015625 191.632812 C 174.171875 191.632812 186.503906 203.964844 186.503906 219.121094 C 186.503906 234.277344 174.171875 246.605469 159.015625 246.605469 " fill-opacity="1" fill-rule="nonzero"/></g><path fill="#ffc107" d="M 160.464844 218.519531 L 160.464844 201.757812 C 160.464844 200.960938 159.816406 200.3125 159.015625 200.3125 C 158.21875 200.3125 157.570312 200.960938 157.570312 201.757812 L 157.570312 219.121094 C 157.570312 219.503906 157.722656 219.871094 157.996094 220.144531 L 169.566406 231.714844 C 169.851562 232 170.21875 232.140625 170.589844 232.140625 C 170.960938 232.140625 171.328125 232 171.613281 231.714844 C 172.179688 231.152344 172.179688 230.234375 171.613281 229.671875 L 160.464844 218.519531 " fill-opacity="1" fill-rule="nonzero"/></svg>