<svg xmlns="http://www.w3.org/2000/svg" xmlns:xlink="http://www.w3.org/1999/xlink" width="500" zoomAndPan="magnify" viewBox="0 0 375 374.999991" height="500" preserveAspectRatio="xMidYMid meet" version="1.0"><defs><g/><clipPath id="10a1dfa31b"><path d="M 93.984375 198.589844 L 196.734375 198.589844 L 196.734375 301.339844 L 93.984375 301.339844 Z M 93.984375 198.589844 " clip-rule="nonzero"/></clipPath></defs><g fill="#fff6ea" fill-opacity="1"><g transform="translate(0.0000045, 185.641576)"><g><path d="M 66.761719 -54.5 L 61.5625 -49.171875 L 52.902344 -57.964844 L 52.902344 -79.285156 L 66.761719 -93.277344 Z M 21.585938 -57.964844 L 12.925781 -49.171875 L 7.730469 -54.5 L 7.730469 -93.277344 L 21.585938 -79.285156 Z M 66.761719 -2.664062 L 52.902344 -16.523438 L 52.902344 -35.3125 L 61.5625 -43.972656 L 66.761719 -38.777344 Z M 44.773438 -23.984375 L 37.84375 -17.054688 L 30.78125 -23.984375 L 30.78125 -51.4375 L 37.84375 -58.5 L 44.773438 -51.4375 Z M 64.230469 0 L 10.394531 0 L 24.253906 -13.859375 L 50.371094 -13.859375 Z M 21.585938 -16.523438 L 7.730469 -2.664062 L 7.730469 -38.777344 L 12.925781 -43.972656 L 21.585938 -35.3125 Z M 21.585938 -16.523438 "/></g></g></g><g fill="#fff6ea" fill-opacity="1"><g transform="translate(75.490023, 185.641576)"><g><path d="M 64.230469 -93.277344 L 50.371094 -79.285156 L 24.253906 -79.285156 L 10.394531 -93.277344 Z M 21.585938 -35.3125 L 21.585938 -13.859375 L 7.730469 0 L 7.730469 -38.777344 L 12.925781 -43.972656 Z M 7.730469 -54.5 L 7.730469 -90.613281 L 21.585938 -76.753906 L 21.585938 -57.964844 L 12.925781 -49.171875 Z M 66.761719 -38.777344 L 66.761719 0 L 52.902344 -13.859375 L 52.902344 -35.3125 L 61.5625 -43.972656 Z M 52.902344 -57.964844 L 52.902344 -76.753906 L 66.761719 -90.613281 L 66.761719 -54.5 L 61.5625 -49.171875 Z M 52.101562 -53.566406 L 59.03125 -46.640625 L 52.101562 -39.710938 L 22.519531 -39.710938 L 15.589844 -46.640625 L 22.519531 -53.566406 Z M 52.101562 -53.566406 "/></g></g></g><g fill="#fff6ea" fill-opacity="1"><g transform="translate(150.980042, 185.641576)"><g><path d="M 44.242188 -6.394531 L 37.3125 0.53125 L 30.382812 -6.394531 L 30.382812 -35.3125 L 39.042969 -43.972656 L 44.242188 -38.777344 Z M 44.242188 -54.5 L 39.042969 -49.171875 L 30.382812 -57.964844 L 30.382812 -68.625 L 37.3125 -75.554688 L 44.242188 -68.625 Z M 69.957031 -86.347656 L 62.894531 -79.285156 L 11.59375 -79.285156 L 4.664062 -86.347656 L 11.59375 -93.277344 L 62.894531 -93.277344 Z M 69.957031 -86.347656 "/></g></g></g><g fill="#fff6ea" fill-opacity="1"><g transform="translate(226.470052, 185.641576)"><g><path d="M 24.253906 0 L 17.324219 -6.929688 L 24.253906 -13.859375 L 52.902344 -13.859375 L 66.761719 0 Z M 66.761719 -93.277344 L 52.902344 -79.285156 L 24.253906 -79.285156 L 17.324219 -86.347656 L 24.253906 -93.277344 Z M 21.585938 -57.964844 L 12.925781 -49.171875 L 7.730469 -54.5 L 7.730469 -76.753906 L 14.65625 -83.683594 L 21.585938 -76.753906 Z M 7.730469 -16.523438 L 14.65625 -9.59375 L 21.585938 -16.523438 L 21.585938 -35.3125 L 12.925781 -43.972656 L 7.730469 -38.777344 Z M 7.730469 -16.523438 "/></g></g></g><g fill="#fff6ea" fill-opacity="1"><g transform="translate(301.960078, 185.641576)"><g><path d="M 21.585938 -35.3125 L 21.585938 -13.859375 L 7.730469 0 L 7.730469 -38.777344 L 12.925781 -43.972656 Z M 7.730469 -54.5 L 7.730469 -93.277344 L 21.585938 -79.285156 L 21.585938 -57.964844 L 12.925781 -49.171875 Z M 66.761719 -38.777344 L 66.761719 0 L 52.902344 -13.859375 L 52.902344 -35.3125 L 61.5625 -43.972656 Z M 52.902344 -57.964844 L 52.902344 -79.285156 L 66.761719 -93.277344 L 66.761719 -54.5 L 61.5625 -49.171875 Z M 52.101562 -53.566406 L 59.03125 -46.640625 L 52.101562 -39.710938 L 22.519531 -39.710938 L 15.589844 -46.640625 L 22.519531 -53.566406 Z M 52.101562 -53.566406 "/></g></g></g><g fill="#fff6ea" fill-opacity="1"><g transform="translate(13.45404, 294.867281)"><g><path d="M 66.285156 -85.734375 L 59.40625 -78.722656 L 21.433594 -78.722656 L 7.671875 -92.613281 L 59.40625 -92.613281 Z M 59.40625 -65.359375 L 48.421875 -48.953125 L 36.121094 -47.628906 L 35.589844 -54.90625 L 49.613281 -75.546875 L 59.40625 -75.546875 Z M 36.121094 -33.605469 L 24.875 -16.933594 L 14.554688 -16.933594 L 14.554688 -26.460938 L 27.121094 -44.984375 L 34.53125 -45.644531 Z M 64.695312 0 L 14.554688 0 L 7.671875 -6.878906 L 14.554688 -13.757812 L 50.9375 -13.757812 Z M 64.695312 0 "/></g></g></g><g fill="#fff6ea" fill-opacity="1"><g transform="translate(104.250422, 294.867281)"><g/></g></g><g fill="#fff6ea" fill-opacity="1"><g transform="translate(155.380467, 294.867281)"><g/></g></g><g fill="#fff6ea" fill-opacity="1"><g transform="translate(206.487147, 294.867281)"><g><path d="M 21.433594 -35.0625 L 21.433594 -13.757812 L 7.671875 0 L 7.671875 -38.5 L 12.832031 -43.660156 Z M 7.671875 -54.113281 L 7.671875 -92.613281 L 21.433594 -78.722656 L 21.433594 -57.554688 L 12.832031 -48.820312 Z M 66.285156 -38.5 L 66.285156 0 L 52.523438 -13.757812 L 52.523438 -35.0625 L 61.125 -43.660156 Z M 52.523438 -57.554688 L 52.523438 -78.722656 L 66.285156 -92.613281 L 66.285156 -54.113281 L 61.125 -48.820312 Z M 11.378906 -92.613281 L 31.488281 -92.613281 L 49.351562 -73.695312 L 49.351562 -63.769531 L 39.558594 -63.769531 Z M 11.378906 -92.613281 "/></g></g></g><g fill="#fff6ea" fill-opacity="1"><g transform="translate(297.299335, 294.867281)"><g><path d="M 66.285156 -92.613281 L 52.523438 -78.722656 L 24.078125 -78.722656 L 10.320312 -92.613281 Z M 66.285156 0 L 10.320312 0 L 24.078125 -13.757812 L 52.523438 -13.757812 Z M 21.433594 -35.0625 L 21.433594 -16.40625 L 7.671875 -2.644531 L 7.671875 -38.5 L 12.832031 -43.660156 Z M 7.671875 -54.113281 L 7.671875 -89.96875 L 21.433594 -76.207031 L 21.433594 -57.554688 L 12.832031 -48.820312 Z M 51.730469 -53.1875 L 58.609375 -46.308594 L 51.730469 -39.425781 L 22.359375 -39.425781 L 15.480469 -46.308594 L 22.359375 -53.1875 Z M 51.730469 -53.1875 "/></g></g></g><g clip-path="url(#10a1dfa31b)"><path fill="#ffc107" d="M 145.359375 198.582031 C 117.027344 198.582031 93.980469 221.636719 93.980469 249.964844 C 93.980469 278.292969 117.027344 301.347656 145.359375 301.347656 C 173.695312 301.347656 196.742188 278.292969 196.742188 249.964844 C 196.742188 221.636719 173.695312 198.582031 145.359375 198.582031 Z M 145.359375 296.449219 C 119.726562 296.449219 98.875 275.597656 98.875 249.964844 C 98.875 224.332031 119.726562 203.476562 145.359375 203.476562 C 170.996094 203.476562 191.851562 224.332031 191.851562 249.964844 C 191.851562 275.597656 170.996094 296.449219 145.359375 296.449219 " fill-opacity="1" fill-rule="nonzero"/></g><path fill="#ffc107" d="M 147.808594 248.953125 L 147.808594 220.601562 C 147.808594 219.253906 146.710938 218.15625 145.359375 218.15625 C 144.011719 218.15625 142.914062 219.253906 142.914062 220.601562 L 142.914062 249.964844 C 142.914062 250.613281 143.171875 251.234375 143.632812 251.695312 L 163.203125 271.269531 C 163.683594 271.746094 164.308594 271.984375 164.933594 271.984375 C 165.558594 271.984375 166.183594 271.746094 166.664062 271.269531 C 167.621094 270.316406 167.621094 268.761719 166.664062 267.808594 L 147.808594 248.953125 " fill-opacity="1" fill-rule="nonzero"/></svg>